<?xml version="1.0" encoding="UTF-8" standalone="yes"?>
<svg viewBox="0 0 1024 1024" version="1.2" baseProfile="tiny-ps" xmlns="http://www.w3.org/2000/svg">
  <title>bimi-svg-tiny-12-ps</title>
  <rect width="1024" height="1024" fill="#fff"/>
  <rect x="397.68" y="464.77" width="1.1" height="2.24" fill="#9b4a28"/>
  <rect x="288.45" y="347.79" width="1.1" height="2.24" fill="#96411d"/>
  <path d="M98.15,670.28h41.86s0,6.97,0,6.97h-34.88v21.9h32.89c-.07,2.42.76,5.36-1.49,6.97h-31.39v23.89h35.88v6.97s-42.85,0-42.85,0v-66.69Z" fill="#59250c"/>
  <path d="M486.63,256.68l3.38,5.61c-6.49.85-12.19,7.8-18.88,4.78-1.2-.54-1.72.13-1.38-1.94l7.87-8.45h9.01Z" fill="#95401b"/>
  <path d="M719.38,452.73c-5.07-5.78-19.53-10.95-27.19-11.62-69.57-6.11-87.93,94.59-26.48,118.68,25.2,9.88,48.25.87,68.08-15.2,1.16,3.24,9.59,10.57,8,13.53-1.68,3.14-18.34,13.08-22.4,14.82-71.21,30.52-135.51-44.45-98.19-110.45,20.24-35.8,67.89-49.64,102.99-26.34,10.88,7.22,25.73,28.49,11.26,39.22-14.02,10.4-28.63-9.25-14.87-20.16-.18-.92-.55-1.78-1.18-2.49Z" fill="#f2753e"/>
  <path d="M719.24,704.15c10.16-2.32,8.4,5.18,13.09,10.15,2.78,2.95,7.21,3.63,9.12,7.07,3.91,7.06-.34,13.36-8.35,12.76-4.87-.36-7.78-3.3-13.29-2.97-5.08.3-14.44,6.54-17.93.32-4.9-8.74,5.54-13.86,9.87-18.65,2.43-2.69,3.69-7.81,7.5-8.68Z" fill="#f2743c"/>
  <path d="M892.69,668.05c46.27-6.27,53.24,63.04,9.29,67.99-45.28,5.1-51.65-62.25-9.29-67.99ZM893.65,674.8c-32.52,4.64-27.82,59.27,8.35,54.53,32.06-4.2,28.22-59.74-8.35-54.53Z" fill="#57230a"/>
  <path d="M618.89,670.28c13.35,2.08,18.64,16.11,12.49,27.4-2.77,5.09-6.42,5.77-11.5,7.44-1.1.36-1.77-.8-1.49,1.48.51,4.22,18.52,28.98,16.94,30.37l-8.76-.21-17.3-30.49-10.81-.16v30.86h-7.97v-66.69c8.7.96,20.06-1.3,28.4,0ZM598.46,699.14h17.44c5.22,0,9.71-6.33,9.55-11.46-.14-4.68-4.93-10.44-9.55-10.44h-17.44v21.9Z" fill="#5d2b12"/>
  <path d="M294.07,369.16l-6.76-16.87v24.18c0,9.61-9.31,31.86-15.52,39.61-1.06,1.33-1.28,3.08-3.62,2.56,2.57-10.61,5.51-21.14,6.74-32.06,2.94-26.24-3.36-52.29,13.72-75.15,2.85-3.81,13.1-14.07,17.28-15.36,5.69-1.75-4.99,8.33-5.56,9.08-9.34,12.36-11.81,26.33-13.04,41.52,3.29-.36,5.33-3.53,8.69-4.23,4.93-1.02,11.22.1,16.04,1.46,11.77,3.32,10.98,7.93,25.93,8.41v2.25c-10.21,3.35-20.2,9.77-28.15,16.87l-2.25-10.12c2.23-.05,4.02.89,3.37-2.25-.69-.17-1.79.2-2.25,0v-1.12c2.6.15,5.27-.1,7.88,0,2.4-2.09-12.22-9.46-14.35-9.86-2.31-.44-4.53-.76-6.59.77-3.03,2.39-.87,16.02-.45,20.35h-1.13ZM289.55,350.03v-2.24h-1.1v2.24h1.1Z" fill="#933d18"/>
  <path d="M552.45,670.44l28.06,66.52c-11.72,2.84-10.37-8.81-14.84-16.3l-33.36-.48-7.57,16.33-8.01.45,27.8-66.07,7.91-.45ZM534.67,713.08h27.91l-13.46-32.86-14.44,32.86Z" fill="#58240b"/>
  <path d="M245.65,670.28c-.07,2.42.76,5.36-1.49,6.97h-33.39v21.9h31.89v6.97h-31.89v23.89h34.38c2.25,1.61,1.42,4.55,1.49,6.97h-43.85v-66.69h42.85Z" fill="#5a270d"/>
  <path d="M387.17,670.28v6.97h-34.88v21.9h32.89c-.07,2.42.76,5.36-1.49,6.97h-31.39v23.89h35.88v6.97h-42.85v-66.69h41.86Z" fill="#59260c"/>
  <path d="M768.59,704.39v29.84h-6.75v-64.5h25.54c.41,0,6.75,2.55,7.57,3.03,10.25,6.03,9.77,23.03-.62,28.94-1.05.6-6.22,2.68-6.95,2.68h-18.79ZM768.59,697.65h16.87c4.65,0,9.42-6.45,9.23-11.05-.18-4.27-5.03-10.13-9.23-10.13h-16.87v21.18Z" fill="#552107"/>
  <path d="M437.82,505.98c-14.3,13.8-44.93,12.58-63.21,27.41-3.14,2.55-6.09,9.09-9.61,7.27,10.9-25.28,39.57-23.31,59.71-34.84,21.12-12.08,14.4-28.48,4.47-46.12,10.56-2.33,14.9-15.12,15.77-24.78,1.86-20.82-3.96-41.29-8.42-61.29,2.15-.16,2.61,1.93,3.35,3.4,8.71,17.3,14.36,47.68,10.43,66.62-1.37,6.61-8.31,17.62-8.71,21.76-.34,3.58,1.95,8.43,2.22,12.29.63,8.88.81,21.7-6,28.27Z" fill="#95401b"/>
  <path d="M661.24,708.6c-1.15-5.27-19.37-27.2-22.99-34.78-.58-1.21-1.29-2.04-.93-3.54,3.03.21,6.74-1,9.02,1.43l17.9,29.42,19.43-29.85,9.45-.51-24.91,37.83v28.37h-6.98v-28.37Z" fill="#552107"/>
  <path d="M858.22,669.73c-.07,2.34.73,5.18-1.45,6.74h-20.72v57.76h-6.75v-57.76h-20.72c-2.18-1.56-1.38-4.4-1.45-6.74h51.08Z" fill="#552107"/>
  <path d="M413.42,320.79c-15.42-10.48-35.53-11.43-50.1,1.17-11.81-9.35-21.16-15.9-36.59-9.6-3.68,1.5-7.31,5.26-9.6,6.16-4.08,1.6,1.07-6.47,1.71-7.3,7.38-9.7,16.19-13.31,28.42-11.52,5.13.75,13.69,6.49,16.07,6.41,1.73-.06,4.87-3.04,7.31-3.88,10.39-3.6,21.01.62,30.05,5.96,2.34,1.38,14.9,9.78,12.72,12.59Z" fill="#933b16"/>
  <path d="M413.43,339.91c-6.47-.79-12.36-4.55-18.86-5.32-11.77-1.4-20.44,3.75-29.96,9.71-12.82-14.56-31.58-16.61-46.34-3.26-3.09.96,4.66-10.25,5.61-11.26,8.59-9.16,20.51-9.91,32.09-6.13,2.53.83,7.92,4.66,9.61,4.64,1.82-.02,3.67-2.61,5.41-3.2,12.52-4.27,21.35-1.18,32.22,5.37,1.28.77,12.04,7.8,10.22,9.46Z" fill="#923a15"/>
  <path d="M356.01,536.74c2.59-12,9.29-25.55,18.55-33.76,15.46-13.72,37.32-12.58,45.38-34.53l3.62-14.92c.33,6.46,1.58,11.57.82,18.24-3.14,27.38-24.21,27.77-42.35,40.93-9.25,6.71-14.44,13.95-22.06,21.83-1.17,1.21-1.98,2.63-3.95,2.23Z" fill="#933b16"/>
  <path d="M162.93,670.28v59.73h29.4c2.25,1.61,1.42,4.55,1.49,6.97h-38.87v-66.69h7.97Z" fill="#59250c"/>
  <path d="M344.73,559.24c-11.84-12.86-23.95-25.23-37.92-35.78-4.8-3.63-11.44-6.25-15.61-10.28-15.32-14.83-18.57-57.3-1.07-72.01-3.42,14.85-6.92,28.76-3.64,44.09,6.07,28.34,44.61,40.9,57.2,68.84.8,1.78,1.38,3.1,1.03,5.14Z" fill="#943d18"/>
  <path d="M409.81,289.51c4.08,6.26-6.21.39-7.33.04-14.94-4.65-29.04-2.67-38.05,11.01-11.74-9.94-20.94-15.32-37.02-13.39-5.37.65-9.08,3.76-14.2,4.36,9.22-12.1,25.42-14.17,39.64-10.9,3.16.73,8.65,3.69,10.64,3.87,5.13.44,14.82-5.39,25.6-4.08,3.88.47,18.92,6.34,20.71,9.09Z" fill="#943d18"/>
  <path d="M346.98,597.47l-17.43-28.13c-17.84-17.11-47.2-27.95-46.74-57.35,6.83,9.69,11.66,19.05,20.79,27.02,7.15,6.24,14.66,8.91,21.89,14.13,14.03,10.12,21.97,26.98,21.48,44.32Z" fill="#933d18"/>
  <path d="M376.26,561.48c-1.96.27-1.06-2.55-1.11-3.91-.24-6.23.06-11.34,3.56-16.7,6.9-10.58,17.94-6.56,28.39-7.63,14.93-1.54,25.11-9.29,33.35-21.23-.91,12.02-6.6,24.08-18.51,28.17-17,5.84-42.44-4.56-45.68,21.31Z" fill="#923b16"/>
  <path d="M733.21,697.87c-5.06,4.51-10.16-.27-10.73-6.1-.82-8.37,3.45-14.39,6.55-21.61,5.39,5.89,11.29,21.37,4.18,27.71Z" fill="#f2773f"/>
  <path d="M714.67,670.17c5.67,5.04,12.33,29.45.74,29.44s-6.68-24.01-.74-29.44Z" fill="#f2753e"/>
  <path d="M425.82,374.77c1.65-3.72,5.68-19.66,2.33-21.99-4.99-3.47-16.67,4.3-21.46,6.28l.57,2.25,10.68-1.13-5.62,3.38,6.75,1.12c-4.19,5.3-7.76,4.23-4.51,12.35l-13.14-12.17-18.38-10.3c16.11,1.88,32.53-15.43,48.08-6.99,4.06,2.2,5.18,6.15,4.62,10.61-.24,1.89-6.82,19.7-9.91,16.6Z" fill="#953f1a"/>
  <path d="M745.21,686.34c.95.89,2.91,9.69,2.97,11.43.18,5.58-2,13.64-8.57,14.27-9.75.94-7.44-11.49-3.24-16.52,2.95-3.53,4.53-2.78,7.31-8.13.29-.56.22-2.27,1.53-1.04Z" fill="#f2773f"/>
  <path d="M700.3,686.34c-.06,4.91,5.19,6.15,7.75,9.54,5.31,7.02,4.57,19.51-6.82,14.9-4.76-1.92-5.64-10.73-5.25-15.16.07-.84,2.11-11.39,4.32-9.28Z" fill="#f2773f"/>
  <path d="M355.99,527.75c-5.62-7.21-10.83-14.96-17.99-20.82-7.99-6.54-20.33-10.18-25.75-19.27-4.31-7.23-5.03-18.87-.72-26.26.52,7.04.26,13.07,4.57,19.04,5.65,7.83,15.59,9.8,22.91,15.35,10.13,7.68,15.96,19.28,16.98,31.96Z" fill="#953f1a"/>
  <path d="M411.17,596.35c-1.69.27-1.82-2.51-1.67-3.51,1.01-6.46,5.64-15.66,7.31-22.34-12.65-.56-26.31-.23-38.87-1.14-1.68-.12-3.26.87-2.79-1.67,6.12-5.54,15.04-6.81,23.06-6.18,9.8.78,14.46,5.28,23.54-3.52,4.62-4.48,5.66-11.04,9.68-15.63-2.27,19-15.47,35.5-20.27,53.98Z" fill="#97421e"/>
  <path d="M414.55,632.34l-1.12-5.61c-6.95,1.54-5.1,5.31-8.44,10.12l-.57-6.74c-3.43,1.6-6.52,3.24-10.11,1.12l-3.38,8.99-.02-6.74c-7.78,6.02-15.54,2.11-18.01-6.74,1.37-1.28,9.15,9.48,12.92,1.09,3.13-6.97-4.53-14.1-3.91-14.59,8.41-.77,8.32,19.26,16.84,11.75,6.42-5.67-3.8-14.57-2.2-16.25l4.47,2.83,6.2,10.65c4.42-2.17-.08-12.66-2.79-15.18,3.21-2.18,6.28,3.2,7.67,5.83,3.32,6.29,5.56,12.73,2.44,19.47Z" fill="#97421e"/>
  <path d="M339.86,396.53c4.87,5,4.56,14.36.94,19.86-2.5-6.85-10.15-3.36-15.61-6.9-6.1-3.95-2.8-8.2-4.27-12.61-.53-1.61-2.85-1.92-3.68-3.07-2.81-3.88-3.35-7.54-2.89-12.29,5.04,9.13,19.29,8.62,25.51,15Z" fill="#933b16"/>
  <path d="M406.67,387.16c3.43,6.39-6.52,10.89-6.77,12.03-.78,3.43,1.27,6.63-1.73,10.39-5.36,6.73-15.05-.16-19.63,7.94-7.54-23.22,13.25-22.92,28.13-30.36Z" fill="#923b16"/>
  <path d="M273.79,419.78c-.92,7.1-3.44,13.81-4.36,20.94-1.62,12.64-.63,27.5,1.17,40.16,1.17,8.26,3.9,16.15,4.87,24.38-3.98-1.79-5.91-8.93-7.33-12.93-7.59-21.46-9.03-50.18,2.85-70.34.86-1.46-.2-2.83,2.79-2.22Z" fill="#95401b"/>
  <path d="M486.63,401.78c.85-7.04,5.29-13.04,2.26-20.24l11.91-1.05c5.8,1.45,13.75,12.3,10.42,17.73-.24.38-7.8,3.56-8.25,3.56h-16.33Z" fill="#923a14"/>
  <path d="M378.52,468.14c-1.54,13.95-40.58,10.57-40.54-.56,8.14-.68,16.38-2.04,20.84-9.55,4.12,7.38,11.47,10.15,19.7,10.11Z" fill="#923a14"/>
  <path d="M503.53,361.29c7.18.27,14.55-2.06,18.97,5.22,3.37,5.55,4.3,18.87-.94,23.53-2.74,1.46-10.88-9.12-12.21-11.52-1.09-1.98-6.48-16.6-5.82-17.23Z" fill="#923a14"/>
  <path d="M457.3,383.73c-2.79,1.95-15.88-13.16-17.11-15.98-3.45-7.9,2.63-14.32,10.74-11.86,1.19.36,7.36,6.47,8.03,7.73,3.64,6.84,1.38,13.74-1.66,20.11Z" fill="#923a15"/>
  <path d="M389.78,368.03c-4.06-1.61-9.64-1.49-14.05-1.11s-11.24,3.44-14.56,3.3c-3.47-.15-9.55-3.47-13.9-4.15-4.66-.73-10.23,1.13-13.76-1.98,0-1.43,8.8-3.74,10.67-3.94,6.86-.75,26.39.41,33.78,1.15,3.96.39,11.52,1.7,11.83,6.74Z" fill="#96411d"/>
  <path d="M476.49,297.17c-2.31,4.8,5.23,12.78,4,15.71-9.8,11.51-17.29,4.43-21.14-7.03-3.45-10.29,10.33-4.96,17.14-8.69Z" fill="#933d18"/>
  <path d="M506.55,341.4c.75.64,7.96,10.74,8.18,11.52.64,2.24-4.94,2.76-6.13,2.74-1.51-.03-11.88-2.06-12.65-2.56-1.88-1.21-6.93-9.53-9.3-11.5,4.89-3.62,15.23-4.17,19.89-.2Z" fill="#933b16"/>
  <path d="M387.54,375.89c-10.98-1.18-18.22.7-26.46,7.93-8.72-8.19-15.69-9.77-27.58-9.6,8.91-8.8,19.24-.81,27.61-.51,7.6.27,20.19-7.21,26.43,2.19Z" fill="#97421e"/>
  <path d="M485.5,273.56l-6.95,12.17c-7.35-.28-12.97,5.81-20.07,5.82l4.79-14.33c7.44-2.61,14.16-4.59,22.23-3.66Z" fill="#923a15"/>
  <path d="M377.39,442.27c1.97,11.1-12.97,6.76-18.58,14.41-7.56-8.98-24.63-4.33-16.88-21.17l.72,7.17,1.69,1.69c4.37,1.43,10.59-.89,14.5-.76,6.37.22,12.73,5.6,18.55-1.34Z" fill="#953f1a"/>
  <path d="M479.69,377.21c1.65,7.46-1.52,13.2-3.21,20.07-.9.8-9.2-2.93-10.15-3.94-3.06-3.26,5.2-16.46,1.16-21.92l12.2,5.79Z" fill="#923a15"/>
  <path d="M496.76,332.03c-4.96,1.57-12.11,3.62-17.24,2.05-1.17-.36-9.5-10.3-8.65-11.03l17.21-2.09,8.68,11.07Z" fill="#953f1a"/>
  <path d="M352.62,603.11c1.12,1.15-5.84,6.95-2.84,11.28,3.98,5.74,7.13-9.02,11.85-7.9-1.12,4.29-6.3,8.2-1.65,12.36l6.15-2.24c.59,6.28-6.46,6.98-10.71,4.51l-1.1,3.35c-2.15-.95-1.29-5.07-1.77-5.53s-10.38-.73-12.3-3.47l-1.12,3.37c-2.84-5.5.97-8.44,2.26-13.48l4.47,5.62c-.59-2.25,5.2-9.47,6.77-7.86Z" fill="#994724"/>
  <path d="M420.19,406.28c1.96,20.12-9.7,33.49-30.39,30.36-.58-3.35.89-1.78,2.64-2.36,10.57-3.54,20.59-7.75,24.44-19.51,1.03-3.15-.03-9.3,3.32-8.49Z" fill="#994724"/>
  <path d="M332.35,433.28c.26,1.97-2.55,1.05-3.92,1.11-20.94.91-29.83-9.62-27.59-30.36l4.29,12c5.37,10.05,15.94,16.26,27.22,17.24Z" fill="#97421e"/>
  <path d="M334.93,448.66c1.23,1.67,4.31,3.66,5.25,6.62l-2.18,2.16c1.5,1.77,4.19.91,3.37,3.93l-19.14,4.5,9.01-4.5c.67-5.19-7.24,1.59-10.13,0l9-6.73-11.25,1.69c3.89-4.51,14.84-3.88,14.65-10.68,2.01-.36.62,1.92,1.43,3.02ZM332.36,453.52v2.24s3.36-1.14,3.36-1.14v-1.1" fill="#994724"/>
  <path d="M386.69,452.12c1.8,1.87,11.69,4.51,13.22,7.6.85,1.72-.46,2.07-2.25,1.11-3.27-1.75-6.18-4.2-10.12-5.06.04,4.57,6.35,3.14,6.75,7.86-1.16.96-7.71-4.84-9-1.13,3.5.92,7,1.73,7.87,5.63l-16.88-6.19c1.49-3.24,3.18-1.27,1.12-6.16l6.75-.02-4.51-1.12.07-3.29c2.52.01,4.39-.68,4.46-3.45h1.09c.22,1.31.52,3.29,1.42,4.22Z" fill="#9b4a28"/>
  <path d="M305.32,382.66c1.93,10.75-7.78,14.13-12.19,22.11l-3.55,10.49c-1.86-6.04-2.21-13.51,2.22-18.57,4.06-4.64,6.47-5.29,10.74-11.81.86-1.32-.27-2.9,2.78-2.23Z" fill="#984522"/>
  <path d="M419.05,386.03c2.65,13.04,17.89,15.34,11.26,31.49l-4.25-10.92c-4.66-6.49-10.46-9.93-9.25-18.9.21-1.52.68-3.4,2.25-1.67Z" fill="#953f1a"/>
  <path d="M425.67,304.08c4.39,3.12,6.42,30.56,8.02,36.96-7.61-6.87-6.61-18.21-8.16-27.27-.28-1.61-5.74-13.88.14-9.69Z" fill="#9b4a28"/>
  <path d="M368.38,591.85c-2.93.25-1.87.15-2.2-1.7-1.84-10.26-4.79-15.94-9.04-25.29,11,2.29,14.64,17.43,11.24,26.98Z" fill="#994724"/>
  <path d="M397.67,445.65c6.1-.2,15.07-3.96,18.54-9.05,1.4-2.06.96-5.06,2.85-5.58,1.45,9.28-4.08,17.64-13.87,17.58-1.97-.01-6.73-.58-7.51-2.95Z" fill="#994724"/>
  <path d="M321.09,443.4c.31,1.46-2.09,1.8-3.08,1.95-9.83,1.51-17.68-2.75-18.3-13.2,3.99.84,5.82,4.75,9.35,6.96s7.96,3.87,12.04,4.29Z" fill="#984522"/>
  <path d="M337.99,352.29c1.42.05,6.76-.48,6.77.56-1.64,1.48-4.86,1.06-6.77,1.69v-2.25Z" fill="#96411d"/>
  <path d="M295.2,369.16c.02.19,2.41,3.31.56,3.39l-1.69-3.39h1.13Z" fill="#96411d"/>
  <path d="M309.84,371.41l-1.12,2.24,1.12-2.24Z" fill="#96411d"/>
  <path d="M308.71,357.91v1.12c-1.09-.5-2.81-.79-3.39-1.69.54-1.54,2.72.52,3.39.56Z" fill="#96411d"/>
  <path d="M395.98,462.51c.73.37.73.75,0,1.12v-1.12Z" fill="#9b4a28"/>
  <path d="M305.33,362.41v-1.12c1.45,0,1.45,1.12,0,1.12Z" fill="#933d18"/>
  <path d="M305.33,362.41c-1.45,0-1.45-1.12,0-1.12v1.12Z" fill="#96411d"/>
  <path d="M314.9,319.67c.73.37.73.75,0,1.12v-1.12Z" fill="#933b16"/>
  <path d="M411.75,292.68c.73.37.73.75,0,1.12v-1.12Z" fill="#943d18"/>
  <polygon points="832.34 427.64 832.34 443.39 812.07 443.39 812.07 491.75 894.28 491.75 894.28 443.39 875.13 443.39 875.13 427.64 931.44 427.64 931.44 443.39 911.17 443.39 911.17 561.49 931.44 561.49 931.44 577.23 875.13 577.23 875.13 561.49 894.28 561.49 894.28 508.63 812.07 508.63 812.07 561.49 832.34 561.49 832.34 577.23 776.04 577.23 776.04 561.49 795.18 561.49 795.18 443.39 776.04 443.39 776.04 427.64 832.34 427.64" fill="#f2753e"/>
  <polygon points="151.06 427.64 151.06 443.39 131.91 443.39 131.91 491.75 214.12 491.75 214.12 443.39 193.85 443.39 193.85 427.64 250.15 427.64 250.15 443.39 231.01 443.39 231.01 561.49 250.15 561.49 250.15 577.23 193.85 577.23 193.85 561.49 214.12 561.49 214.12 508.63 131.91 508.63 131.91 561.49 151.06 561.49 151.06 577.23 94.75 577.23 94.75 561.49 115.02 561.49 115.02 443.39 94.75 443.39 94.75 427.64 151.06 427.64" fill="#f2753e"/>
  <polygon points="583.48 427.64 583.48 465.89 566.58 465.89 566.58 442.27 530.55 442.27 530.55 561.49 550.82 561.49 550.82 577.23 492.26 577.23 492.26 561.49 512.53 561.49 512.53 442.27 478.19 442.27 476.5 443.95 476.5 465.89 459.61 465.89 459.61 427.64 583.48 427.64" fill="#f2763f"/>
  <polygon points="260.6 670.28 271.43 670.41 292.51 723.03 314.89 671.24 326.38 670.28 326.38 736.97 319.4 736.97 319.4 681.23 294 737.04 290.62 736.84 267.58 682.22 267.58 736.97 260.6 736.97 260.6 670.28" fill="#572309"/>
  <polygon points="402.12 670.28 411.66 671.2 449.96 725.03 449.96 670.28 457.93 670.28 457.93 736.97 447.48 735.97 409.1 681.23 409.1 736.97 402.12 736.97 402.12 670.28" fill="#5a270d"/>
  <polygon points="520.72 670.28 520.72 677.24 498.8 677.24 498.8 736.97 490.82 736.97 490.82 677.24 468.9 677.24 468.9 670.28 520.72 670.28" fill="#59260d"/>
  <polygon points="396.53 470.38 395.43 470.38 394.84 467.03 396.53 468.71 396.53 470.38" fill="#9b4a28"/>
  <line x1="549.11" y1="680.22" x2="562.58" y2="713.08" fill="#fbfbfa"/>
</svg>